<svg xmlns="http://www.w3.org/2000/svg" width="42" height="42" viewBox="0 0 42 42">
    <g fill="none" fill-rule="evenodd">
        <path fill="#B8B8B8" d="M18.46 24.25l.001 16.747 19.3-8.51V16.272z"/>
        <path fill="#8F8F8F" d="M18.46 41L4.03 31.412V14.664l14.429 9.586z"/>
        <path fill="#DCDCDC" d="M4 14.671l14.46 9.58 19.306-7.979-14.46-9.578z"/>
        <path fill="#1D1D1D" d="M27.915 13.727L15.207 18.95c-.531.22-1.335.154-1.785-.144-.45-.299-.384-.722.147-.94l12.708-5.224c.531-.219 1.335-.153 1.786.145.45.299.384.722-.148.94"/>
        <path fill="#8F8F8F" d="M14.165 18.561c-.043-4.9-2.501-9.278-5.391-11.749C11.836 5.99 19.6 3.995 21.67 2c2.329 1.431 5.574 8.438 5.358 11.256-8.195 3.208-12.863 5.305-12.863 5.305"/>
    </g>
</svg>
